<?xml version="1.0" encoding="utf-8"?>
<!-- Generator: Adobe Illustrator 19.0.0, SVG Export Plug-In . SVG Version: 6.00 Build 0)  -->
<svg version="1.1" id="Шар_1" xmlns="http://www.w3.org/2000/svg" xmlns:xlink="http://www.w3.org/1999/xlink" x="0px" y="0px"
	 viewBox="0 0 208.7 15.1" style="enable-background:new 0 0 208.7 15.1;" xml:space="preserve">
<style type="text/css">
	.st0{fill:#676767;}
</style>
<g id="XMLID_40_">
	<path id="XMLID_41_" class="st0" d="M0,14.5c0-0.9,0.1-5.7,0.1-7.1V5.2C0.1,4.7,0,0.8,0,0.5c0.8,0,2.5,0.1,3.8,0.3
		c2.7,0.4,4.4,1.7,4.4,3.8c0,2.7-2.5,5-6.3,5.7v1.2c0,0.4,0,2.6,0,3H0z M1.8,8.9c2.5-0.5,4.4-1.8,4.4-4C6.2,4.3,5.9,2,1.8,2V8.9z"/>
	<path id="XMLID_44_" class="st0" d="M11.6,14c1-1.7,6.2-11.3,6.6-12h0c1.5,2.4,5.9,10.1,7,11.9l-1.6,1c-0.3-0.6-2.2-4-2.4-4.3
		l-6.2,0.2c-0.2,0.5-1.6,3.5-1.9,4.1L11.6,14z M20.7,9.3c-0.2-0.4-2.3-4.2-2.5-4.5c-0.3,0.4-2.2,4.4-2.4,4.7L20.7,9.3z"/>
	<path id="XMLID_47_" class="st0" d="M31.9,9.3c0,0.6,0.1,4.9,0.1,5.2h-1.9c0.1-0.4,0-5.8,0-6.2V7c0-0.5,0-4-0.1-4.4
		c0.9,0,2.4,0,4,0.1C36.5,3,37.9,4,37.9,5.5c0,1.4-1.1,2.6-2.6,3.5c0.5,0.6,3.7,4.1,4.2,4.6l-1.4,1.2c-0.2-0.2-4.3-5.3-4.9-6
		C34.1,8.4,36,7.4,36,5.7c0-0.8-0.6-1.8-4-1.8V9.3z"/>
	<path id="XMLID_49_" class="st0" d="M44.4,14.7c0-0.5,0.1-3.4,0.1-5.3V7.6c0-1.5-0.1-4.7-0.1-5.1h1.9c0,0.3-0.1,3.5-0.1,5v1.8
		c0,1.3,0.1,5.1,0.1,5.5H44.4z M52.8,14.7c-0.2-0.2-5.6-5.6-6.4-6.4c0.3-0.3,5.5-5.1,5.9-5.6L53.4,4c-0.7,0.6-3.9,3.3-4.9,4.2
		c0.6,0.7,4.8,4.5,5.6,5.2L52.8,14.7z"/>
	<path id="XMLID_52_" class="st0" d="M67.9,14.7c0-0.6,0.1-4,0.1-6.2V6.3c0-1.7-0.1-5.6-0.1-6h2c0,0.3-0.1,4.1-0.1,5.8v2.2
		c0,1.5,0.1,6,0.1,6.4H67.9z M77.1,14.6c-0.2-0.3-6.2-6.5-7.1-7.4c0.3-0.3,6.1-6,6.5-6.5L77.7,2c-0.8,0.7-4.4,4-5.4,5
		c0.6,0.8,5.4,5.4,6.2,6.2L77.1,14.6z"/>
	<path id="XMLID_55_" class="st0" d="M82.6,9.2c0-3.8,2.8-6.8,7.2-6.8c3.5,0,6.1,2.1,6.1,5.8c0,2.7-1.9,6.7-7.1,6.7
		C84.8,14.8,82.6,12.2,82.6,9.2z M94,8.2c0-3-2.1-4.6-4.5-4.6c-3.2,0-5.1,2.4-5.1,5.3c0,2.5,1.7,4.6,4.5,4.6
		C91.6,13.5,94,11.6,94,8.2z"/>
	<path id="XMLID_58_" class="st0" d="M101.4,14.5c0-0.9,0.1-5.7,0.1-7.1V5.2c0-0.5-0.1-4.5-0.1-4.8c2.6,0,4.7,0.1,6.2,0.4
		c2.3,0.5,4,1.7,4,3.9c0,2.7-2.5,5.2-6.9,6v0.8c0,0.4,0,2.6,0,3H101.4z M104.8,8.5c1.7-0.3,3.4-1.4,3.4-3.3c0-0.9-0.5-2.4-3.4-2.5
		V8.5z"/>
	<path id="XMLID_61_" class="st0" d="M114.5,13.5c0.7-1.2,5.7-9.8,7-11.7h0.2c2,2.8,6.5,10.2,7.4,11.5l-2.8,1.6
		c-0.4-0.8-1.8-3-1.9-3.2l-5.7,0.2c-0.1,0.3-1.1,2.3-1.5,3L114.5,13.5z M123.5,9.7c-0.4-0.7-1.6-3-1.9-3.5c-0.4,0.7-1.5,3-1.9,3.7
		L123.5,9.7z"/>
	<path id="XMLID_64_" class="st0" d="M136.7,9.3c0,0.6,0,4.9,0.1,5.2h-3.3c0.1-0.4,0-5,0-5.3V7c0-0.5,0-4.1-0.1-4.5
		c1.9,0,4,0,5.7,0.2c2.6,0.3,4,1.3,4,2.9c0,1.5-0.9,2.6-2.4,3.4c0.5,0.6,3.4,3.5,3.9,4l-2.7,2c-0.3-0.5-4-5.4-4.5-6.1
		c0.9-0.5,2.2-1.3,2.2-2.8c0-0.8-0.5-1.6-2.9-1.6V9.3z"/>
	<path id="XMLID_66_" class="st0" d="M148.8,14.7c0-0.5,0.1-3.4,0.1-5.3V7.6c0-1.5-0.1-4.8-0.1-5.2h3.3c0,0.3-0.1,3.6-0.1,5v0.6h0.1
		c1-1.1,4.8-5.2,5.2-5.7l2.2,2.3c-0.8,0.6-3.2,2.8-4.1,3.7c0.6,0.7,3.8,3.6,4.5,4.3l-2.4,2.4c-0.3-0.3-4.2-4.8-5.4-6.2h-0.1v0.6
		c0,1.3,0,5.1,0.1,5.4H148.8z"/>
	<path id="XMLID_68_" class="st0" d="M170.4,14c0.4-0.8,4.5-12.3,5.2-14h0.1c1,1.7,4.3,7.6,4.9,8.6c0.8-1.2,4.1-6.9,4.9-8.2h0.1
		c1.1,2.4,4.9,11.8,5.6,13.3l-3.1,1.4c-0.6-1.6-3-8-3.2-8.5c-0.4,0.6-3.4,5.5-4.6,7.2h-0.1c-1.4-2.3-3.6-6.3-4-7.1h0
		c-0.3,0.9-2.4,7.5-2.7,8.4L170.4,14z"/>
	<path id="XMLID_70_" class="st0" d="M201.2,14.8c-4.4,0-6.6-2.9-6.6-5.7c0-3.5,2.6-6.8,7.5-6.8c4,0,6.6,2.2,6.6,5.9
		C208.7,10.7,206.9,14.8,201.2,14.8L201.2,14.8z M205.1,8.2c0-2.5-1.4-3.8-3.2-3.8c-2.3,0-3.7,2-3.7,4.4c0,2.4,1.3,3.8,3.2,3.8
		C203.5,12.6,205.1,11.1,205.1,8.2z"/>
</g>
</svg>
