<?xml version="1.0" encoding="utf-8"?>
<!-- Generator: Adobe Illustrator 19.0.0, SVG Export Plug-In . SVG Version: 6.00 Build 0)  -->
<svg version="1.1" id="Шар_1" xmlns="http://www.w3.org/2000/svg" xmlns:xlink="http://www.w3.org/1999/xlink" x="0px" y="0px"
	 viewBox="0 0 30 40.8" style="enable-background:new 0 0 30 40.8;" xml:space="preserve">
<style type="text/css">
	.st0{fill:#4BA534;}
	.st1{fill:#DCECD6;}
</style>
<path id="XMLID_28_" class="st0" d="M15,0C6.7,0,0,6.7,0,15c0,3.5,1.3,6.5,3.1,9.1C15,40.8,15,40.8,15,40.8s0,0,11.9-16.7
	c1.8-2.6,3.1-5.7,3.1-9.1C30,6.7,23.3,0,15,0z M15,24.4c-5.2,0-9.4-4.2-9.4-9.4c0-5.2,4.2-9.4,9.4-9.4c5.2,0,9.4,4.2,9.4,9.4
	C24.4,20.2,20.2,24.4,15,24.4z"/>
<path id="XMLID_29_" class="st1" d="M15,5.6c-5.2,0-9.4,4.2-9.4,9.4c0,5.2,4.2,9.4,9.4,9.4c5.2,0,9.4-4.2,9.4-9.4
	C24.4,9.8,20.2,5.6,15,5.6z"/>
<g id="XMLID_22_">
	<path id="XMLID_36_" class="st0" d="M22.2,16.2h-0.4c-0.1-0.5-0.3-1.2-0.6-1.6c-1.4-1.8-3.1-2.7-5.2-2.7c-1.4,0-2.3,0.1-2.8,0.4
		c-0.1,0-0.3,0.1-0.8,1.2c-0.7,0-2.7,0.1-3.6,1.2c-0.5,0.5-0.7,1.1-0.7,1.5H7.8c-0.2,0-0.3,0.1-0.3,0.3c0,0.2,0.1,0.3,0.3,0.3H8
		c0,0,0,0,0,0c0,0.2,0.2,0.3,0.3,0.3h0.4c0.2,0.6,0.8,0.9,1.4,0.9s1.2-0.4,1.4-0.9h6c0.2,0.6,0.8,0.9,1.4,0.9c0.6,0,1.2-0.4,1.4-0.9
		h1.1c0,0,0,0,0,0c0.2,0,0.3-0.1,0.3-0.3h0.3c0.2,0,0.3-0.1,0.3-0.3C22.5,16.4,22.3,16.2,22.2,16.2z M10.1,17.5
		c-0.5,0-0.9-0.4-0.9-0.9c0-0.5,0.4-0.9,0.9-0.9c0.5,0,0.9,0.4,0.9,0.9C11.1,17.1,10.7,17.5,10.1,17.5z M15.6,14h-2.4
		c-0.1,0-0.1,0-0.1-0.1c0,0,0-0.1,0-0.2c0.1-0.2,0.3-0.6,0.4-0.7c0.3-0.2,1-0.3,2-0.3c0.1,0,0.1,0,0.2,0c0.1,0,0.2,0.1,0.2,0.2l0,1
		C15.7,13.9,15.7,14,15.6,14z M16.2,14c-0.1,0-0.2-0.1-0.2-0.2v-0.9c0,0,0-0.1,0.1-0.1c0,0,0.1,0,0.1,0c1.1,0.1,2,0.5,2.3,1
		c0,0,0,0.1,0,0.2c0,0.1-0.1,0.1-0.1,0.1H16.2z M19,17.5c-0.5,0-0.9-0.4-0.9-0.9c0-0.5,0.4-0.9,0.9-0.9c0.5,0,0.9,0.4,0.9,0.9
		C20,17.1,19.6,17.5,19,17.5z"/>
</g>
</svg>
